<svg version="1.1" id="katman_1" xmlns="http://www.w3.org/2000/svg" xmlns:xlink="http://www.w3.org/1999/xlink" x="0px" y="0px"
	 viewBox="0 0 824 824" style="enable-background:new 0 0 824 824;" xml:space="preserve">
<style type="text/css">
	.st0{display:none;}
	.st1{display:inline;fill-rule:evenodd;clip-rule:evenodd;fill:url(#SVGID_1_);}
	.st2{fill-rule:evenodd;clip-rule:evenodd;fill:url(#SVGID_00000179625019432611083230000008219094681749515400_);}
</style>
<g class="st0">
	
		<radialGradient id="SVGID_1_" cx="127.0568" cy="223.6927" r="1" gradientTransform="matrix(512 0 0 512 -64897.082 -114118.6719)" gradientUnits="userSpaceOnUse">
		<stop  offset="0" style="stop-color:#5D9DF6"/>
		<stop  offset="1" style="stop-color:#006FFF"/>
	</radialGradient>
	<path class="st1" d="M412,156c141.4,0,256,114.6,256,256S553.4,668,412,668S156,553.4,156,412S270.6,156,412,156z"/>
</g>
<radialGradient id="SVGID_00000125593203292751486680000014458978901177918082_" cx="72.0142" cy="412.4752" r="635.8984" gradientUnits="userSpaceOnUse">
	<stop  offset="0" style="stop-color:#5D9DF6"/>
	<stop  offset="1" style="stop-color:#006FFF"/>
</radialGradient>
<path style="fill-rule:evenodd;clip-rule:evenodd;fill:url(#SVGID_00000125593203292751486680000014458978901177918082_);" d="
	M211.3,286c110.8-108.2,290.6-108.2,401.4,0l13.3,13.1c5.6,5.4,5.6,14.2,0,19.6l-45.6,44.5c-2.8,2.8-7.3,2.8-10.1,0L552,345.4
	c-77.4-75.5-202.6-75.5-280.1,0l-19.6,19.1c-2.8,2.8-7.3,2.8-10.1,0L196.7,320c-5.6-5.4-5.6-14.2,0-19.6L211.3,286z M707.1,378.1
	l40.7,39.6c5.6,5.4,5.6,14.2,0,19.6L564.7,616c-5.6,5.4-14.6,5.4-20,0l0,0L414.8,489.1c-1.3-1.3-3.7-1.3-4.9,0l0,0L279.9,616
	c-5.6,5.4-14.6,5.4-20,0l0,0L76.2,437.3c-5.6-5.4-5.6-14.2,0-19.6l40.7-39.6c5.6-5.4,14.6-5.4,20,0L266.8,505c1.3,1.3,3.7,1.3,4.9,0
	l0,0l129.9-126.9c5.6-5.4,14.6-5.4,20,0l0,0L551.6,505c1.3,1.3,3.7,1.3,4.9,0l129.9-126.9C692.5,372.7,701.5,372.7,707.1,378.1
	L707.1,378.1z"/>
</svg>
